# xmcd
#
# Track frame offsets: 
#        150
#        29158
#        50624
#        83603
#        142471
#        166190
#        208233
#        229737
#        269841
#        289788
#        318976
#
# Disc length: 4449 seconds
#
# Revision: 2
# Processed by: cddbd v1.5.2PL0 Copyright (c) Steve Scherf et al.
# Submitted via: ExactAudioCopy v0.95b4
#
DISCID=ae115f0b
DTITLE=Chris Duarte Group - Blue Velocity
DYEAR=2007
DGENRE=Blues
TTITLE0=Amy Lee
TTITLE1=Do It Again
TTITLE2=Hard Mind
TTITLE3=Something Wicked
TTITLE4=I'll Never Know
TTITLE5=Sun Prairie Blues
TTITLE6=Never Gonna Change
TTITLE7=R U 4 Real ?
TTITLE8=Out In The Rain
TTITLE9=Leave Her Be
TTITLE10=Met My Match
EXTD=
EXTT0=
EXTT1=
EXTT2=
EXTT3=
EXTT4=
EXTT5=
EXTT6=
EXTT7=
EXTT8=
EXTT9=
EXTT10=
PLAYORDER=
